# xmcd
#
# Track frame offsets:
#	150
#	13835
#	29552
#	45682
#	60527
#	82782
#
# Disc length: 1326 seconds
#
# Revision: 2
# Processed by: cddbd v1.5.1PL2 Copyright (c) Steve Scherf et al.
# Submitted via: dBpowerAMP V4.0
#
DISCID=42052c06
DTITLE=Various Artist - Ltd Edition
DYEAR=1997
DGENRE=Country
TTITLE0=Reba McEntire - Fear of Being Aone
TTITLE1=Brooks and Dunn - My Maria
TTITLE2=Reba McEntire - For My Broken Heart
TTITLE3=Brooks and Dunn - Boot Scootin' Boogie
TTITLE4=Reba McEntire - Fancy
TTITLE5=Brooks and Dunn - Rock My World
EXTD=
EXTT0=
EXTT1=
EXTT2=
EXTT3=
EXTT4=
EXTT5=
PLAYORDER=
